<?xml version="1.0" encoding="UTF-8" standalone="no"?>
<!DOCTYPE svg PUBLIC "-//W3C//DTD SVG 1.1//EN" "http://www.w3.org/Graphics/SVG/1.1/DTD/svg11.dtd">
<svg width="100%" height="100%" viewBox="0 0 258 297" version="1.1" xmlns="http://www.w3.org/2000/svg" xmlns:xlink="http://www.w3.org/1999/xlink" xml:space="preserve" xmlns:serif="http://www.serif.com/" style="fill-rule:evenodd;clip-rule:evenodd;stroke-linecap:round;stroke-linejoin:round;stroke-miterlimit:1.5;">
    <g transform="matrix(1,0,0,1,-61.1894,-85.5735)">
        <g transform="matrix(1,0,0,1,-42.6266,-294.343)">
            <g transform="matrix(1.41559,-0.0135684,0.0103084,1.07547,-129.856,-42.5642)">
                <path d="M340.821,515.547L340.821,552.195C340.821,616.625 301.08,668.934 252.13,668.934C203.18,668.934 163.439,616.625 163.439,552.195L163.439,515.547C163.439,451.117 203.18,398.808 252.13,398.808C301.08,398.808 340.821,451.117 340.821,515.547Z" style="fill:none;stroke:black;stroke-width:4.77px;"/>
            </g>
            <g transform="matrix(1.33464,-0.0127925,0.00946441,0.98742,-109.987,4.03334)">
                <path d="M340.821,518.686L340.821,549.056C340.821,615.219 301.08,668.934 252.13,668.934C203.18,668.934 163.439,615.219 163.439,549.056L163.439,518.686C163.439,452.524 203.18,398.808 252.13,398.808C301.08,398.808 340.821,452.524 340.821,518.686Z" style="fill:none;stroke:black;stroke-width:2.56px;"/>
            </g>
            <g transform="matrix(1.30195,-0.0124792,0.00912702,0.95222,-101.565,22.7469)">
                <path d="M340.821,520.073L340.821,547.669C340.821,614.597 301.08,668.934 252.13,668.934C203.18,668.934 163.439,614.597 163.439,547.669L163.439,520.073C163.439,453.145 203.18,398.808 252.13,398.808C301.08,398.808 340.821,453.145 340.821,520.073Z" style="fill:none;stroke:black;stroke-width:1.75px;"/>
            </g>
            <g transform="matrix(0.833308,-0.00798725,0.00590928,0.616514,0.636685,224.263)">
                <path d="M170.184,581.45C168.486,581.45 167.637,579.814 167.637,576.543C167.637,576.127 167.628,575.265 167.611,573.956L164.918,573.956C164.557,573.956 164.319,574.046 164.205,574.224C164.082,574.391 164.02,574.724 164.02,575.223L164.02,575.812L163.624,575.812L163.624,571.244L164.02,571.244L164.02,571.833C164.02,572.333 164.082,572.666 164.205,572.832C164.319,572.999 164.557,573.082 164.918,573.082L171.306,573.082C171.658,573.082 171.909,572.987 172.059,572.797C172.208,572.606 172.283,572.285 172.283,571.833L172.283,571.244L172.679,571.244L172.679,576.561C172.679,579.82 171.848,581.45 170.184,581.45ZM170.198,580.361C171.034,580.361 171.614,579.975 171.94,579.202C172.169,578.667 172.283,577.864 172.283,576.793L172.283,575.259C172.283,574.391 171.958,573.956 171.306,573.956L168.059,573.956C168.015,575.098 167.993,575.919 167.993,576.419C167.993,577.489 168.147,578.369 168.455,579.059C168.842,579.927 169.423,580.361 170.198,580.361Z" style="fill-rule:nonzero;stroke:black;stroke-width:0.2px;stroke-linecap:butt;stroke-miterlimit:2;"/>
                <path d="M164.784,595.823L164.313,591.444L164.705,591.367L164.785,592.109C164.858,592.792 165.156,593.082 165.679,592.979L168.957,592.334L168.224,585.519L164.945,586.164C164.422,586.267 164.198,586.659 164.271,587.342L164.349,588.066L163.958,588.143L163.486,583.764L163.878,583.687L163.958,584.429C164.03,585.1 164.327,585.384 164.85,585.281L171.459,583.981C171.982,583.878 172.207,583.491 172.135,582.82L172.055,582.079L172.447,582.002L172.918,586.38L172.526,586.457L172.448,585.733C172.375,585.051 172.077,584.761 171.554,584.864L168.615,585.442L169.349,592.257L172.288,591.679C172.811,591.576 173.035,591.183 172.962,590.5L172.882,589.759L173.274,589.682L173.745,594.06L173.353,594.137L173.273,593.396C173.201,592.725 172.904,592.441 172.381,592.544L165.772,593.844C165.249,593.947 165.024,594.333 165.097,595.004L165.176,595.746L164.784,595.823Z" style="fill-rule:nonzero;stroke:black;stroke-width:0.2px;stroke-linecap:butt;stroke-miterlimit:2;"/>
                <path d="M172.359,606.512C171.144,607.113 170.003,607.171 168.934,606.686C167.762,606.165 166.955,605.088 166.514,603.458C166.069,601.816 166.169,600.284 166.815,598.862C167.402,597.571 168.303,596.625 169.518,596.024C170.749,595.414 171.894,595.349 172.951,595.826C174.115,596.352 174.919,597.436 175.364,599.078C175.805,600.709 175.708,602.233 175.07,603.65C174.486,604.953 173.582,605.906 172.359,606.512ZM172.087,605.506C173.136,604.987 173.949,604.217 174.526,603.197C175.218,601.981 175.373,600.669 174.992,599.262C174.614,597.866 173.868,597 172.756,596.664C171.823,596.403 170.836,596.531 169.795,597.046C168.754,597.561 167.943,598.323 167.364,599.332C166.664,600.552 166.504,601.866 166.885,603.274C167.267,604.681 168.016,605.545 169.134,605.866C170.061,606.141 171.046,606.022 172.087,605.506Z" style="fill-rule:nonzero;stroke:black;stroke-width:0.2px;stroke-linecap:butt;stroke-miterlimit:2;"/>
                <path d="M177.88,615.92L177.746,615.612C178.551,614.809 179.064,614.146 179.287,613.625C179.575,612.927 179.535,612.152 179.165,611.301C178.738,610.316 178.285,610.013 177.807,610.392L172.16,614.871C171.872,615.1 171.704,615.336 171.657,615.58C171.614,615.835 171.678,616.157 171.847,616.547L172.087,617.101L171.757,617.363L170.027,613.377L170.357,613.115L170.591,613.654C170.765,614.054 170.942,614.286 171.123,614.349C171.308,614.423 171.544,614.346 171.833,614.117L177.479,609.638C177.958,609.259 177.983,608.577 177.555,607.592C177.186,606.741 176.705,606.315 176.113,606.316C175.664,606.314 174.986,606.597 174.079,607.164L173.945,606.856L176.835,604.875L180.562,613.461L177.88,615.92Z" style="fill-rule:nonzero;stroke:black;stroke-width:0.2px;stroke-linecap:butt;stroke-miterlimit:2;"/>
                <path d="M182.656,626.64C181.658,627.753 180.596,628.322 179.469,628.345C178.236,628.381 177.21,627.729 176.391,626.39C175.568,625.041 175.285,623.552 175.544,621.921C175.78,620.439 176.397,619.141 177.394,618.028C178.405,616.899 179.468,616.323 180.582,616.297C181.809,616.27 182.835,616.93 183.658,618.278C184.476,619.617 184.76,621.098 184.507,622.722C184.277,624.213 183.66,625.519 182.656,626.64ZM182.151,625.814C183.013,624.852 183.59,623.761 183.883,622.54C184.236,621.081 184.059,619.774 183.353,618.619C182.653,617.472 181.736,616.991 180.605,617.175C179.661,617.349 178.762,617.913 177.907,618.867C177.052,619.821 176.475,620.905 176.177,622.117C175.818,623.583 175.991,624.893 176.697,626.049C177.403,627.204 178.322,627.682 179.455,627.482C180.398,627.324 181.296,626.769 182.151,625.814Z" style="fill-rule:nonzero;stroke:black;stroke-width:0.2px;stroke-linecap:butt;stroke-miterlimit:2;"/>
                <path d="M189.617,636.695L189.224,636.218C188.811,635.718 188.408,635.765 188.014,636.358L185.979,639.427L185.694,639.082L186.222,637.565C185.195,637.759 184.275,637.363 183.463,636.379C182.552,635.275 182.108,633.923 182.13,632.321C182.143,630.787 182.566,629.391 183.4,628.133C184.311,626.76 185.34,625.93 186.487,625.643C187.733,625.332 188.822,625.74 189.752,626.868C190.532,627.812 190.953,628.889 191.014,630.097L192.019,629.758L192.235,630.02L189.992,633.723L189.737,633.414C190.296,632.303 190.567,631.225 190.55,630.182C190.53,629.072 190.179,628.104 189.498,627.278C188.725,626.341 187.743,626.119 186.554,626.611C185.556,627.03 184.698,627.78 183.981,628.861C183.276,629.924 182.878,631.086 182.786,632.348C182.683,633.821 183.055,635.07 183.9,636.094C184.509,636.832 185.189,637.144 185.938,637.03C186.508,636.937 186.922,636.696 187.18,636.306L187.533,635.775C187.926,635.181 187.913,634.631 187.494,634.123L187.101,633.646L187.347,633.274L189.864,636.323L189.617,636.695Z" style="fill-rule:nonzero;stroke:black;stroke-width:0.2px;stroke-linecap:butt;stroke-miterlimit:2;"/>
                <path d="M196.51,646.305C195.732,647.776 195.009,648.203 194.341,647.584C193.826,647.107 193.793,646.161 194.243,644.747C194.472,644.022 194.616,643.549 194.674,643.329C194.833,642.741 194.916,642.241 194.923,641.829C194.946,640.856 194.57,640.01 193.793,639.291C193.583,639.096 193.234,638.794 192.747,638.387L190.912,642.008C190.718,642.39 190.644,642.704 190.691,642.949C190.737,643.194 190.902,643.447 191.185,643.71L191.555,644.053L191.331,644.494L188.533,641.902L188.757,641.461L189.116,641.794C189.624,642.264 190.045,642.171 190.378,641.513L194.004,634.36C194.203,633.968 194.287,633.635 194.255,633.36C194.219,633.096 194.063,632.836 193.787,632.58L193.416,632.237L193.64,631.796L197.375,635.255C198.108,635.934 198.6,636.699 198.851,637.552C199.109,638.453 199.043,639.287 198.655,640.052C197.949,641.446 196.77,641.572 195.119,640.432C195.655,641.52 195.661,642.888 195.135,644.535C194.904,645.286 194.775,645.823 194.75,646.146C194.732,646.476 194.803,646.715 194.963,646.863C195.13,647.017 195.335,647.012 195.578,646.848C195.829,646.691 196.056,646.433 196.259,646.073L196.51,646.305ZM197.958,639.471C198.654,638.097 198.371,636.826 197.108,635.656L195.856,634.496C195.34,634.019 194.901,634.138 194.538,634.855L193.016,637.857C193.49,638.353 193.868,638.733 194.151,638.995C195.008,639.788 195.703,640.259 196.236,640.407C196.961,640.617 197.535,640.305 197.958,639.471Z" style="fill-rule:nonzero;stroke:black;stroke-width:0.2px;stroke-linecap:butt;stroke-miterlimit:2;"/>
                <path d="M204.894,655.188L202.125,653.22L202.303,652.762L202.607,652.978C203.09,653.321 203.411,653.287 203.571,652.877C203.612,652.772 203.651,652.491 203.69,652.034L203.883,649.773L200.472,647.348L199.498,648.51C199.145,648.932 198.932,649.237 198.858,649.426C198.76,649.679 198.776,649.919 198.906,650.146C199.037,650.373 199.328,650.647 199.779,650.968L199.601,651.426L196.938,649.533L197.116,649.075C197.542,649.284 197.857,649.353 198.063,649.285C198.233,649.231 198.485,649.006 198.817,648.611L204.902,641.366L205.264,641.623L204.291,652.865C204.22,653.688 204.48,654.309 205.072,654.73L204.894,655.188ZM203.945,649.192L204.537,642.497L200.803,646.958L203.945,649.192Z" style="fill-rule:nonzero;stroke:black;stroke-width:0.2px;stroke-linecap:butt;stroke-miterlimit:2;"/>
                <path d="M215.972,651.709C215.34,653.839 213.901,654.296 211.655,653.078C211.369,652.923 210.774,652.613 209.869,652.148L208.866,655.527C208.732,655.979 208.705,656.31 208.785,656.52C208.853,656.737 209.059,656.938 209.402,657.124L209.806,657.343L209.659,657.84L206.523,656.14L206.67,655.643L207.074,655.862C207.417,656.048 207.669,656.095 207.829,656.002C207.986,655.921 208.132,655.654 208.266,655.201L210.644,647.186C210.775,646.745 210.803,646.395 210.728,646.136C210.653,645.878 210.46,645.664 210.15,645.496L209.746,645.277L209.893,644.78L213.544,646.759C215.782,647.972 216.591,649.622 215.972,651.709ZM215.23,651.287C215.541,650.238 215.492,649.366 215.082,648.669C214.8,648.183 214.291,647.741 213.556,647.342L212.502,646.771C211.906,646.448 211.487,646.695 211.244,647.512L210.036,651.585C210.803,652.066 211.359,652.399 211.702,652.585C212.437,652.983 213.099,653.118 213.687,652.988C214.427,652.825 214.942,652.258 215.23,651.287Z" style="fill-rule:nonzero;stroke:black;stroke-width:0.2px;stroke-linecap:butt;stroke-miterlimit:2;"/>
                <path d="M223.779,664.171L220.639,662.922L220.751,662.409L221.283,662.62C221.772,662.815 222.092,662.57 222.241,661.886L223.176,657.589L218.288,655.645L217.353,659.941C217.204,660.626 217.374,661.066 217.864,661.261L218.383,661.467L218.271,661.98L215.131,660.731L215.242,660.218L215.774,660.43C216.255,660.621 216.571,660.374 216.72,659.69L218.605,651.029C218.754,650.344 218.588,649.906 218.107,649.715L217.575,649.503L217.687,648.99L220.827,650.239L220.715,650.753L220.196,650.546C219.707,650.351 219.387,650.596 219.238,651.281L218.4,655.132L223.288,657.076L224.126,653.225C224.275,652.54 224.105,652.101 223.615,651.906L223.083,651.694L223.195,651.181L226.336,652.43L226.224,652.943L225.692,652.732C225.211,652.54 224.896,652.787 224.747,653.472L222.861,662.132C222.712,662.817 222.878,663.255 223.359,663.446L223.891,663.658L223.779,664.171Z" style="fill-rule:nonzero;stroke:black;stroke-width:0.2px;stroke-linecap:butt;stroke-miterlimit:2;"/>
                <path d="M235.75,655.454C235.275,655.33 234.895,655.383 234.612,655.612C234.43,655.758 234.151,656.139 233.776,656.756L231.023,661.253L230.556,664.529C230.466,665.16 230.671,665.54 231.172,665.671L231.717,665.813L231.644,666.321L228.391,665.473L228.464,664.965L229.008,665.107C229.509,665.237 229.805,664.987 229.895,664.357L230.295,661.554L228.291,654.308C228.131,653.733 227.71,653.357 227.028,653.179L227.1,652.671L230.288,653.503L230.216,654.011L229.646,653.862C229.283,653.767 229.079,653.877 229.034,654.193C229.017,654.31 229.085,654.648 229.238,655.209L230.778,660.808L233.466,656.385C233.781,655.873 233.949,655.548 233.969,655.407C234.007,655.139 233.711,654.922 233.08,654.758L232.769,654.677L232.842,654.169L235.823,654.946L235.75,655.454Z" style="fill-rule:nonzero;stroke:black;stroke-width:0.2px;stroke-linecap:butt;stroke-miterlimit:2;"/>
            </g>
            <g transform="matrix(-0.83331,0.00781708,-0.00578339,-0.616516,456.479,833.506)">
                <path d="M225.415,673.246L225.675,673.312C225.596,674.659 225.629,675.617 225.774,676.186C225.974,676.939 226.433,677.406 227.151,677.587C227.981,677.798 228.447,677.534 228.549,676.798L229.754,668.099C229.815,667.655 229.793,667.329 229.688,667.121C229.574,666.91 229.352,666.764 229.024,666.68L228.557,666.562L228.627,666.054L231.987,666.904L231.917,667.412L231.463,667.298C231.126,667.212 230.88,667.241 230.726,667.383C230.563,667.524 230.451,667.816 230.39,668.26L229.185,676.959C229.083,677.695 229.447,678.168 230.278,678.379C230.996,678.56 231.549,678.349 231.937,677.745C232.233,677.288 232.52,676.411 232.798,675.114L233.057,675.179L232.268,679.427L225.028,677.595L225.415,673.246Z" style="fill-rule:nonzero;stroke:black;stroke-width:0.2px;stroke-linecap:butt;stroke-miterlimit:2;"/>
                <path d="M216.181,661.731L219.331,662.933L219.224,663.448L218.69,663.244C218.199,663.057 217.882,663.307 217.738,663.994L216.839,668.304L221.742,670.174L222.642,665.864C222.785,665.177 222.612,664.74 222.12,664.553L221.599,664.354L221.707,663.839L224.858,665.04L224.75,665.555L224.216,665.352C223.734,665.168 223.421,665.419 223.277,666.106L221.464,674.795C221.32,675.481 221.49,675.917 221.973,676.101L222.506,676.305L222.399,676.82L219.248,675.618L219.356,675.103L219.877,675.302C220.368,675.489 220.685,675.239 220.828,674.552L221.635,670.689L216.731,668.819L215.925,672.682C215.781,673.369 215.955,673.806 216.447,673.994L216.98,674.197L216.873,674.712L213.722,673.511L213.83,672.996L214.363,673.199C214.846,673.383 215.159,673.132 215.302,672.445L217.116,663.756C217.259,663.07 217.09,662.634 216.607,662.45L216.073,662.246L216.181,661.731Z" style="fill-rule:nonzero;stroke:black;stroke-width:0.2px;stroke-linecap:butt;stroke-miterlimit:2;"/>
                <path d="M206.218,661.201L207.577,657.301L214.604,660.984L214.461,661.483L214.092,661.289C213.78,661.126 213.533,661.099 213.351,661.207C213.172,661.305 213.017,661.581 212.887,662.036L210.563,670.137C210.35,670.88 210.506,671.389 211.031,671.664L211.474,671.896L211.331,672.395L204.439,668.784L205.391,664.824L205.637,664.953C205.42,666.498 205.405,667.555 205.591,668.124C205.78,668.683 206.346,669.209 207.29,669.704L208.779,670.484C209.082,670.643 209.324,670.674 209.503,670.576C209.682,670.479 209.832,670.219 209.952,669.798L210.978,666.221L209.452,665.421C208.919,665.142 208.527,665.109 208.277,665.322C208.027,665.536 207.774,666.092 207.516,666.99L207.184,666.816L208.606,661.859L208.938,662.033C208.674,662.953 208.58,663.593 208.656,663.952C208.741,664.315 209.054,664.639 209.595,664.922L211.122,665.722L212.271,661.713C212.405,661.247 212.43,660.897 212.347,660.662C212.271,660.431 212.074,660.232 211.754,660.064L209.907,659.097C209.046,658.645 208.359,658.623 207.845,659.03C207.464,659.34 206.999,660.105 206.452,661.323L206.218,661.201Z" style="fill-rule:nonzero;stroke:black;stroke-width:0.2px;stroke-linecap:butt;stroke-miterlimit:2;"/>
                <path d="M192.154,646.088L194.908,648.309L194.706,648.768L194.297,648.439C194.048,648.238 193.845,648.165 193.688,648.218C193.531,648.272 193.374,648.477 193.216,648.835L189.633,656.956L196.45,649.552L196.734,649.78L195.11,661.33L198.626,653.362C198.937,652.658 198.889,652.141 198.481,651.812L198.027,651.446L198.23,650.986L200.713,652.988L200.51,653.448L200.056,653.082C199.648,652.753 199.295,652.926 198.998,653.6L195.617,661.261C195.347,661.874 195.416,662.345 195.824,662.674L196.277,663.04L196.081,663.484L194.358,662.095L195.927,650.771L189.268,657.991L187.522,656.584L187.718,656.14L188.217,656.542C188.633,656.877 188.976,656.738 189.246,656.125L192.661,648.387C192.818,648.029 192.881,647.748 192.849,647.542C192.809,647.33 192.661,647.12 192.404,646.913L191.951,646.548L192.154,646.088Z" style="fill-rule:nonzero;stroke:black;stroke-width:0.2px;stroke-linecap:butt;stroke-miterlimit:2;"/>
                <path d="M181.323,642.487C182.123,641.114 183.072,640.254 184.17,639.909C185.37,639.521 186.475,639.865 187.484,640.939C188.501,642.021 189.01,643.396 189.012,645.064C189.014,646.58 188.615,648.024 187.814,649.398C187.003,650.79 186.055,651.658 184.97,652.002C183.775,652.38 182.669,652.028 181.653,650.947C180.644,649.872 180.135,648.505 180.127,646.847C180.118,645.323 180.517,643.87 181.323,642.487ZM181.945,643.15C181.254,644.337 180.861,645.568 180.766,646.846C180.65,648.372 181.027,649.599 181.898,650.526C182.762,651.446 183.733,651.654 184.81,651.151C185.705,650.711 186.496,649.902 187.182,648.725C187.868,647.547 188.262,646.324 188.363,645.054C188.485,643.518 188.11,642.287 187.239,641.36C186.368,640.432 185.395,640.229 184.319,640.749C183.422,641.172 182.631,641.972 181.945,643.15Z" style="fill-rule:nonzero;stroke:black;stroke-width:0.2px;stroke-linecap:butt;stroke-miterlimit:2;"/>
                <path d="M173.629,632.082C174.56,630.868 175.587,630.191 176.709,630.05C177.937,629.887 178.997,630.43 179.889,631.68C180.787,632.938 181.153,634.394 180.988,636.047C180.837,637.549 180.296,638.907 179.365,640.121C178.422,641.351 177.395,642.037 176.285,642.178C175.063,642.334 174.004,641.782 173.105,640.524C172.214,639.274 171.847,637.826 172.006,636.181C172.151,634.671 172.692,633.304 173.629,632.082ZM174.179,632.853C173.374,633.902 172.861,635.05 172.639,636.298C172.37,637.789 172.621,639.073 173.39,640.152C174.154,641.222 175.095,641.607 176.213,641.306C177.144,641.034 178.008,640.378 178.806,639.338C179.604,638.297 180.118,637.157 180.346,635.918C180.621,634.419 180.374,633.13 179.604,632.051C178.834,630.973 177.89,630.592 176.772,630.91C175.841,631.165 174.977,631.812 174.179,632.853Z" style="fill-rule:nonzero;stroke:black;stroke-width:0.2px;stroke-linecap:butt;stroke-miterlimit:2;"/>
                <path d="M167.227,620.056C168.386,618.954 169.496,618.524 170.557,618.765C171.619,619.006 172.552,619.899 173.358,621.446L175.675,625.896L175.351,626.204L175.123,625.766C174.925,625.387 174.729,625.174 174.532,625.128C174.343,625.075 174.098,625.193 173.796,625.48L168.614,630.409C168.312,630.696 168.147,630.969 168.12,631.228C168.086,631.493 168.168,631.815 168.366,632.194L168.593,632.632L168.27,632.94L165.877,628.344C165.041,626.739 164.735,625.263 164.959,623.916C165.19,622.561 165.946,621.275 167.227,620.056ZM167.521,621.086C165.319,623.181 164.863,625.468 166.155,627.949L166.998,629.568C167.302,630.152 167.706,630.204 168.21,629.725L173.456,624.734C173.959,624.255 174.059,623.724 173.756,623.14L173.003,621.696C171.651,619.099 169.824,618.895 167.521,621.086Z" style="fill-rule:nonzero;stroke:black;stroke-width:0.2px;stroke-linecap:butt;stroke-miterlimit:2;"/>
                <path d="M158.308,608.587C158.512,609.18 158.765,609.566 159.069,609.743C159.263,609.857 159.655,609.939 160.244,609.989L164.553,610.377L166.792,608.973C167.224,608.703 167.332,608.255 167.117,607.629L166.884,606.95L167.231,606.732L168.625,610.795L168.277,611.012L168.044,610.333C167.83,609.707 167.507,609.529 167.076,609.799L165.16,611L161.983,617.434C161.732,617.946 161.753,618.628 162.045,619.48L161.698,619.698L160.332,615.716L160.679,615.498L160.923,616.211C161.079,616.664 161.264,616.823 161.48,616.688C161.56,616.638 161.723,616.365 161.97,615.869L164.429,610.907L160.203,610.546C159.712,610.5 159.418,610.507 159.322,610.567C159.139,610.682 159.182,611.133 159.452,611.921L159.585,612.31L159.238,612.527L157.961,608.804L158.308,608.587Z" style="fill-rule:nonzero;stroke:black;stroke-width:0.2px;stroke-linecap:butt;stroke-miterlimit:2;"/>
                <path d="M163.067,582.061L163.453,586.454L163.06,586.517L162.994,585.773C162.934,585.088 162.642,584.788 162.118,584.872L158.828,585.399L159.428,592.238L162.718,591.711C163.242,591.627 163.474,591.242 163.414,590.557L163.35,589.831L163.743,589.768L164.129,594.161L163.736,594.224L163.67,593.48C163.611,592.807 163.32,592.513 162.795,592.597L156.163,593.66C155.638,593.744 155.406,594.122 155.465,594.796L155.53,595.54L155.137,595.603L154.751,591.209L155.145,591.146L155.208,591.872C155.268,592.557 155.561,592.858 156.085,592.774L159.034,592.301L158.434,585.462L155.485,585.935C154.961,586.019 154.729,586.404 154.789,587.089L154.854,587.833L154.461,587.896L154.075,583.502L154.468,583.439L154.534,584.183C154.593,584.856 154.885,585.151 155.409,585.067L162.041,584.004C162.566,583.92 162.798,583.541 162.739,582.868L162.674,582.124L163.067,582.061Z" style="fill-rule:nonzero;stroke:black;stroke-width:0.2px;stroke-linecap:butt;stroke-miterlimit:2;"/>
                <path d="M154.596,567.072L154.596,567.732C154.596,568.422 154.886,568.767 155.467,568.767L160.06,568.767C161.019,568.767 161.794,569.1 162.383,569.766C163.087,570.563 163.439,571.765 163.439,573.37C163.439,576.451 162.379,577.991 160.258,577.991L155.387,577.991C154.86,577.991 154.596,578.336 154.596,579.026L154.596,579.775L154.2,579.775L154.2,575.297L154.596,575.297L154.596,576.064C154.596,576.754 154.86,577.099 155.387,577.099L160.192,577.099C162.102,577.099 163.057,575.773 163.057,573.121C163.057,571.991 162.797,571.069 162.278,570.355C161.75,569.653 161.006,569.302 160.047,569.302L155.453,569.302C154.882,569.302 154.596,569.653 154.596,570.355L154.596,571.122L154.2,571.122L154.2,567.072L154.596,567.072Z" style="fill-rule:nonzero;stroke:black;stroke-width:0.2px;stroke-linecap:butt;stroke-miterlimit:2;"/>
                <path d="M160.073,554.242L163.255,554.545L163.255,564.733L162.859,564.733L162.859,564.198C162.859,563.746 162.788,563.425 162.647,563.234C162.515,563.044 162.269,562.949 161.908,562.949L155.48,562.949C154.89,562.949 154.596,563.329 154.596,564.091L154.596,564.733L154.2,564.733L154.2,554.742L157.275,554.51L157.275,554.867C156.131,555.152 155.396,555.515 155.071,555.955C154.754,556.395 154.596,557.299 154.596,558.667L154.596,560.826C154.596,561.266 154.662,561.581 154.794,561.771C154.926,561.962 155.159,562.057 155.493,562.057L158.331,562.057L158.331,559.844C158.331,559.071 158.212,558.566 157.975,558.328C157.737,558.09 157.262,557.971 156.549,557.971L156.549,557.489L160.483,557.489L160.483,557.971C159.752,557.971 159.277,558.084 159.057,558.31C158.837,558.548 158.727,559.059 158.727,559.844L158.727,562.057L161.908,562.057C162.278,562.057 162.529,561.962 162.661,561.771C162.793,561.593 162.859,561.272 162.859,560.808L162.859,558.132C162.859,556.883 162.625,556.008 162.159,555.509C161.807,555.14 161.112,554.831 160.073,554.581L160.073,554.242Z" style="fill-rule:nonzero;stroke:black;stroke-width:0.2px;stroke-linecap:butt;stroke-miterlimit:2;"/>
                <path d="M160.945,542.785C161.719,542.785 162.331,543.172 162.779,543.945C163.228,544.706 163.453,545.652 163.453,546.782C163.453,547.495 163.378,548.114 163.228,548.637C163.061,549.244 162.762,549.856 162.331,550.475L163.334,551.206L163.334,551.545L160.047,551.652L160.021,551.224C162.045,550.594 163.057,549.113 163.057,546.782C163.057,545.985 162.894,545.277 162.568,544.658C162.199,543.969 161.728,543.624 161.156,543.624C160.461,543.624 159.924,544.064 159.545,544.944C159.405,545.277 159.171,546.116 158.846,547.46C158.555,548.708 158.283,549.589 158.027,550.1C157.587,550.957 157.011,551.385 156.298,551.385C155.629,551.385 155.079,551.058 154.648,550.403C154.226,549.737 154.015,548.881 154.015,547.834C154.015,546.514 154.362,545.396 155.057,544.48L154.094,543.891L154.094,543.517L157.103,543.338L157.103,543.784C156.232,544.105 155.585,544.545 155.163,545.105C154.662,545.759 154.411,546.651 154.411,547.781C154.411,548.542 154.543,549.184 154.807,549.708C155.123,550.314 155.563,550.618 156.127,550.618C156.69,550.618 157.139,550.195 157.473,549.351C157.57,549.089 157.768,548.328 158.067,547.067C158.419,545.58 158.705,544.611 158.925,544.159C159.383,543.243 160.056,542.785 160.945,542.785Z" style="fill-rule:nonzero;stroke:black;stroke-width:0.2px;stroke-linecap:butt;stroke-miterlimit:2;"/>
            </g>
            <g transform="matrix(2.47682,0,0,2.47682,-782.513,-776.931)">
                <g transform="matrix(1,0,0,1,-0.386043,1.46285)">
                    <path d="M418.627,526.22L405.168,526.22L405.168,524.559L407.162,524.559C408.381,524.559 409.23,524.319 409.71,523.839C410.19,523.359 410.43,522.472 410.43,521.18L410.43,491.825L397.636,526.22L396.251,526.22L383.734,491.936L383.734,520.737C383.734,523.285 384.731,524.559 386.725,524.559L388.94,524.559L388.94,526.22L376.811,526.22L376.811,524.559L379.026,524.559C381.02,524.559 382.017,523.34 382.017,520.903L382.017,493.21C382.017,490.995 381.02,489.887 379.026,489.887L376.811,489.887L376.811,488.281L385.229,488.281L397.58,521.845L410.098,488.281L418.627,488.281L418.627,489.887L416.19,489.887C414.159,489.887 413.144,490.995 413.144,493.21L413.144,521.18C413.144,522.472 413.365,523.359 413.808,523.839C414.288,524.319 415.156,524.559 416.412,524.559L418.627,524.559L418.627,526.22Z"/>
                </g>
                <g transform="matrix(1,0,0,1,-15.9595,37.8013)">
                    <path d="M458.394,526.22L444.658,526.22L444.658,524.559L446.985,524.559C449.126,524.559 450.197,523.451 450.197,521.235L450.197,507.334L428.818,507.334L428.818,521.235C428.818,523.451 429.889,524.559 432.03,524.559L434.301,524.559L434.301,526.22L420.566,526.22L420.566,524.559L422.892,524.559C424.996,524.559 426.049,523.451 426.049,521.235L426.049,493.21C426.049,490.995 424.996,489.887 422.892,489.887L420.566,489.887L420.566,488.225L434.301,488.225L434.301,489.887L432.03,489.887C429.889,489.887 428.818,490.995 428.818,493.21L428.818,505.672L450.197,505.672L450.197,493.21C450.197,490.995 449.126,489.887 446.985,489.887L444.658,489.887L444.658,488.225L458.394,488.225L458.394,489.887L456.068,489.887C453.963,489.887 452.911,490.995 452.911,493.21L452.911,521.235C452.911,523.451 453.963,524.559 456.068,524.559L458.394,524.559L458.394,526.22Z"/>
                </g>
            </g>
        </g>
    </g>
</svg>
